<svg xmlns="http://www.w3.org/2000/svg" viewBox="0 0 1800 900" role="img" aria-labelledby="title desc">
  <title id="title">Freshly cleaned commercial lobby with polished floors and windows</title>
  <desc id="desc">A bright commercial lobby with clear windows, polished hard floors, reception seating, and cleaning supplies.</desc>
  <defs>
    <linearGradient id="wall" x1="0" x2="1" y1="0" y2="1">
      <stop stop-color="#ffffff" />
      <stop offset="1" stop-color="#eef8f3" />
    </linearGradient>
    <linearGradient id="floor" x1="0" x2="1" y1="0" y2="1">
      <stop stop-color="#f7fbf8" />
      <stop offset=".55" stop-color="#e7f2ee" />
      <stop offset="1" stop-color="#d8edf7" />
    </linearGradient>
    <linearGradient id="glass" x1="0" x2="0" y1="0" y2="1">
      <stop stop-color="#e7f7ff" />
      <stop offset="1" stop-color="#bfead8" />
    </linearGradient>
    <filter id="softShadow" x="-20%" y="-20%" width="140%" height="140%">
      <feDropShadow dx="0" dy="24" stdDeviation="24" flood-color="#14201a" flood-opacity=".14" />
    </filter>
  </defs>

  <rect width="1800" height="900" fill="url(#wall)" />
  <rect y="522" width="1800" height="378" fill="url(#floor)" />
  <path fill="#ffffff" opacity=".62" d="M0 646h1800v24H0z" />
  <path fill="#ffffff" opacity=".42" d="M710 522h1090v16H710z" />

  <g opacity=".42">
    <path fill="#ffffff" d="M720 640 1180 900H760L320 640z" />
    <path fill="#ffffff" d="M1160 640 1640 900h-270L900 640z" />
  </g>

  <g transform="translate(820 92)" filter="url(#softShadow)">
    <rect width="676" height="430" rx="8" fill="#ffffff" />
    <rect x="28" y="28" width="196" height="374" fill="url(#glass)" />
    <rect x="240" y="28" width="196" height="374" fill="url(#glass)" />
    <rect x="452" y="28" width="196" height="374" fill="url(#glass)" />
    <g opacity=".34">
      <circle cx="120" cy="282" r="76" fill="#2f7d58" />
      <circle cx="324" cy="260" r="94" fill="#2f7d58" />
      <circle cx="545" cy="286" r="86" fill="#2f7d58" />
    </g>
    <path fill="#ffffff" opacity=".44" d="M54 60h142v18H54zM266 60h142v18H266zM478 60h142v18H478z" />
    <path fill="#194b34" opacity=".64" d="M232 28h8v374h-8zM444 28h8v374h-8z" />
  </g>

  <g transform="translate(1220 430)" filter="url(#softShadow)">
    <rect x="0" y="60" width="360" height="128" rx="8" fill="#ffffff" />
    <rect x="28" y="0" width="284" height="92" rx="8" fill="#ffffff" />
    <rect x="34" y="24" width="92" height="52" rx="8" fill="#d8edf7" />
    <rect x="144" y="24" width="86" height="52" rx="8" fill="#fff2c8" />
    <rect x="256" y="24" width="72" height="52" rx="8" fill="#cceee0" />
    <path fill="#dce8e1" d="M34 188h300v24H34z" />
  </g>

  <g transform="translate(1426 646)" filter="url(#softShadow)">
    <rect x="18" y="86" width="174" height="70" rx="8" fill="#ffffff" />
    <rect x="28" y="64" width="154" height="44" rx="8" fill="#dce8e1" />
    <path fill="#2a6f8f" d="M52 42h36v44H52z" />
    <path fill="#d8edf7" d="M58 20h24l6 22H52l6-22z" />
    <path fill="#194b34" d="M118 32h36v54h-36z" />
    <path fill="#cceee0" d="M126 8h20l8 24h-36l8-24z" />
    <path fill="#d6a84f" d="M18 110h174v10H18z" />
    <path fill="#2f7d58" d="M172 26c22 10 36 29 40 56l-16 3c-4-22-14-36-32-44l8-15z" />
  </g>

  <g opacity=".4">
    <path fill="#ffffff" d="M850 652c165-18 318-20 460-3 51 6 53 25 2 32-154 20-314 17-479-6-42-6-36-18 17-23Z" />
    <path fill="#ffffff" d="M1224 724c151-17 296-14 437 8 42 7 38 21-8 27-140 18-288 14-445-12-38-6-31-17 16-23Z" />
  </g>

  <g transform="translate(1010 678)" opacity=".36">
    <path fill="#194b34" d="M0 18c0-10 8-18 18-18h304c10 0 18 8 18 18s-8 18-18 18H18C8 36 0 28 0 18Z" />
    <path fill="#ffffff" d="M44 10h240v16H44z" />
  </g>

  <g transform="translate(128 668)" opacity=".34">
    <path fill="#ffffff" d="M0 0h430v28H0z" />
    <path fill="#cceee0" d="M62 64h360v18H62z" />
    <path fill="#d8edf7" d="M0 132h480v22H0z" />
  </g>
</svg>
