<svg xmlns="http://www.w3.org/2000/svg" viewBox="0 0 96 96" role="img" aria-labelledby="title desc">
  <title id="title">Kingdom Cleaners logo</title>
  <desc id="desc">A crown above a clean water drop inside a green shield.</desc>
  <defs>
    <linearGradient id="shield" x1="18" x2="78" y1="14" y2="84" gradientUnits="userSpaceOnUse">
      <stop stop-color="#2f7d58" />
      <stop offset="1" stop-color="#194b34" />
    </linearGradient>
  </defs>
  <path fill="url(#shield)" d="M48 6 82 18v28c0 21.5-13.8 36.3-34 44C27.8 82.3 14 67.5 14 46V18L48 6Z" />
  <path fill="#d6a84f" d="m28 31 9-10 11 12 11-12 9 10v13H28V31Z" />
  <path fill="#fff2c8" d="M31 47h34v7H31z" />
  <path fill="#ffffff" d="M48 35c8.7 10.1 13 17.1 13 23.5C61 66 55.6 72 48 72s-13-6-13-13.5C35 52.1 39.3 45.1 48 35Z" />
  <path fill="#cceee0" d="M48 65.5c-3.7 0-6.4-2.6-6.4-6.4 0-2.5 1.7-6 6.4-12 4.7 6 6.4 9.5 6.4 12 0 3.8-2.7 6.4-6.4 6.4Z" />
  <path fill="#ffffff" d="m67 18 2.4 5.2 5.6 1-4.1 3.9.7 5.6-4.9-2.7-5 2.7 1-5.6-4.2-3.9 5.7-1L67 18Z" opacity=".85" />
</svg>
